<?xml version="1.0" encoding="UTF-8" standalone="no"?>
<svg
   xmlns:dc="http://purl.org/dc/elements/1.1/"
   xmlns:cc="http://creativecommons.org/ns#"
   xmlns:rdf="http://www.w3.org/1999/02/22-rdf-syntax-ns#"
   xmlns:svg="http://www.w3.org/2000/svg"
   xmlns="http://www.w3.org/2000/svg"
   xmlns:xlink="http://www.w3.org/1999/xlink"
   xmlns:sodipodi="http://sodipodi.sourceforge.net/DTD/sodipodi-0.dtd"
   xmlns:inkscape="http://www.inkscape.org/namespaces/inkscape"
   version="1.1"
   id="Layer_1"
   width="1000.0001"
   height="324.6835"
   viewBox="0 0 1000.0001 324.68351"
   overflow="visible"
   enable-background="new 0 0 659.055 202.068"
   xml:space="preserve"
   inkscape:version="1.0.2-2 (e86c870879, 2021-01-15)"
   sodipodi:docname="Visa_2014.svg"
   style="overflow:visible"><metadata
   id="metadata3739"><rdf:RDF><cc:Work
       rdf:about=""><dc:format>image/svg+xml</dc:format><dc:type
         rdf:resource="http://purl.org/dc/dcmitype/StillImage" /><dc:title /></cc:Work></rdf:RDF></metadata><defs
   id="defs3737"><linearGradient
     id="linearGradient3801"><stop
       style="stop-color:#20225f;stop-opacity:1"
       offset="0"
       id="stop3803" /><stop
       id="stop3815"
       offset="0.2"
       style="stop-color:#1a1f61;stop-opacity:1" /><stop
       id="stop3813"
       offset="0.41023257"
       style="stop-color:#172272;stop-opacity:1" /><stop
       id="stop3811"
       offset="0.59519672"
       style="stop-color:#152682;stop-opacity:1" /><stop
       id="stop3809"
       offset="0.80208331"
       style="stop-color:#12288e;stop-opacity:1" /><stop
       style="stop-color:#0e2c9a;stop-opacity:1"
       offset="1"
       id="stop3805" /></linearGradient><linearGradient
     inkscape:collect="always"
     xlink:href="#linearGradient3801"
     id="linearGradient3807"
     x1="-60.048428"
     y1="431.60797"
     x2="740.05066"
     y2="431.60797"
     gradientUnits="userSpaceOnUse"
     gradientTransform="matrix(1.2491404,0,0,1.2491404,75.136131,-428.03322)" /></defs><sodipodi:namedview
   pagecolor="#ffffff"
   bordercolor="#666666"
   borderopacity="1"
   objecttolerance="10"
   gridtolerance="10"
   guidetolerance="10"
   inkscape:pageopacity="0"
   inkscape:pageshadow="2"
   inkscape:window-width="1366"
   inkscape:window-height="705"
   id="namedview3735"
   showgrid="false"
   fit-margin-left="0.5"
   fit-margin-bottom="0.5"
   fit-margin-top="0.5"
   fit-margin-right="0.5"
   inkscape:zoom="0.5"
   inkscape:cx="658.09992"
   inkscape:cy="169.88605"
   inkscape:window-x="-8"
   inkscape:window-y="-8"
   inkscape:window-maximized="1"
   inkscape:current-layer="layer2"
   inkscape:document-rotation="0"><inkscape:grid
     type="xygrid"
     id="grid3787"
     empspacing="5"
     visible="true"
     enabled="true"
     snapvisiblegridlinesonly="true"
     originx="7.4699998e-06"
     originy="-2e-08" /></sodipodi:namedview>

<g
   inkscape:groupmode="layer"
   id="layer2"
   inkscape:label="Layer 1"><path
     style="overflow:visible;fill:url(#linearGradient3807);fill-opacity:1;stroke:none"
     d="m 651.18503,0.50000002 c -70.93272,0 -134.32163,36.76584998 -134.32163,104.69357998 0,77.90028 112.42264,83.28082 112.42264,122.41576 0,16.47806 -18.88384,31.22851 -51.13668,31.22851 -45.77308,0 -79.98403,-20.61081 -79.98403,-20.61081 l -14.63836,68.54658 c 0,0 39.41037,17.40989 91.73375,17.40989 77.55217,0 138.57651,-38.57104 138.57651,-107.66029 0,-82.3157 -112.89106,-87.53633 -112.89106,-123.86008 0,-12.9082 15.50201,-27.05169 47.66251,-27.05169 36.28682,0 65.89216,14.98968 65.89216,14.98968 l 14.32608,-66.20444 c 0,0 -32.21317,-13.89668998 -77.64189,-13.89668998 z M 2.2175605,5.49657 0.49999253,15.48969 c 0,0 29.61230947,6.045202 56.71878047,16.35593 34.388671,13.080723 37.042555,19.77288 42.900167,42.35367 l 63.51098,244.83152 h 85.13673 L 379.92639,5.49657 H 294.98484 L 210.7069,218.67018 176.3165,37.97422 C 172.40525,17.423486 157.18709,5.49657 137.63219,5.49657 Z m 411.8650095,0 -66.63383,313.53424 h 80.99895 L 494.84731,5.49657 Z m 451.75943,0 c -19.53181,0 -29.86332,10.464079 -37.47421,28.73022 L 709.69945,319.03081 H 794.641 l 16.434,-47.46734 h 103.48348 l 9.99312,47.46734 h 74.94843 L 934.11533,5.49657 Z m 11.04709,84.70733 25.17799,117.65341 h -67.45359 z"
     id="path3789"
     inkscape:connector-curvature="0"
     sodipodi:nodetypes="cccccccccccccccccccccccccccccccccccccccccccc" /></g></svg>
