<?xml version="1.0" encoding="UTF-8" standalone="no"?>
<!-- Created with Inkscape (http://www.inkscape.org/) -->

<svg
   xmlns:dc="http://purl.org/dc/elements/1.1/"
   xmlns:cc="http://creativecommons.org/ns#"
   xmlns:rdf="http://www.w3.org/1999/02/22-rdf-syntax-ns#"
   xmlns:svg="http://www.w3.org/2000/svg"
   xmlns="http://www.w3.org/2000/svg"
   xmlns:sodipodi="http://sodipodi.sourceforge.net/DTD/sodipodi-0.dtd"
   xmlns:inkscape="http://www.inkscape.org/namespaces/inkscape"
   width="119.26546"
   height="21.22867"
   viewBox="0 0 31.555654 5.6167524"
   version="1.1"
   id="svg795"
   inkscape:version="0.92.0 r15299"
   sodipodi:docname="paytm.svg">
  <defs
     id="defs789">
    <clipPath
       id="clipPath458"
       clipPathUnits="userSpaceOnUse">
      <path
         inkscape:connector-curvature="0"
         id="path456"
         d="M 0,841.89 H 595.276 V 0 H 0 Z" />
    </clipPath>
  </defs>
  <sodipodi:namedview
     id="base"
     pagecolor="#ffffff"
     bordercolor="#666666"
     borderopacity="1.0"
     inkscape:pageopacity="0.0"
     inkscape:pageshadow="2"
     inkscape:zoom="2.3964144"
     inkscape:cx="126.64372"
     inkscape:cy="-48.647984"
     inkscape:document-units="mm"
     inkscape:current-layer="layer1"
     showgrid="false"
     fit-margin-top="0"
     fit-margin-left="0"
     fit-margin-right="0"
     fit-margin-bottom="0"
     units="px"
     inkscape:window-width="1280"
     inkscape:window-height="744"
     inkscape:window-x="-4"
     inkscape:window-y="-4"
     inkscape:window-maximized="1" />
  <metadata
     id="metadata792">
    <rdf:RDF>
      <cc:Work
         rdf:about="">
        <dc:format>image/svg+xml</dc:format>
        <dc:type
           rdf:resource="http://purl.org/dc/dcmitype/StillImage" />
        <dc:title></dc:title>
      </cc:Work>
    </rdf:RDF>
  </metadata>
  <g
     inkscape:label="Layer 1"
     inkscape:groupmode="layer"
     id="layer1"
     transform="translate(39.080056,-145.89267)">
    <g
       id="g452"
       transform="matrix(0.35277777,0,0,-0.35277777,-130.63425,158.15681)">
      <g
         id="g454"
         clip-path="url(#clipPath458)">
        <g
           id="g460"
           transform="translate(307.4396,29.9796)">
          <path
             d="M 0,0 C -0.433,1.238 -1.613,2.127 -2.999,2.127 H -3.028 C -3.929,2.127 -4.741,1.752 -5.319,1.15 -5.898,1.752 -6.71,2.127 -7.61,2.127 h -0.029 c -0.792,0 -1.516,-0.29 -2.072,-0.77 V 1.601 C -9.73,1.844 -9.93,2.035 -10.177,2.035 h -2.126 c -0.26,0 -0.47,-0.21 -0.47,-0.471 V -9.981 c 0,-0.261 0.21,-0.471 0.47,-0.471 h 2.126 c 0.237,0 0.432,0.177 0.463,0.406 l -10e-4,8.288 c 0,0.029 10e-4,0.056 0.004,0.083 0.034,0.37 0.305,0.674 0.733,0.712 h 0.079 0.223 0.09 c 0.179,-0.016 0.33,-0.079 0.449,-0.174 0.185,-0.147 0.288,-0.373 0.288,-0.621 l 0.008,-8.247 c 0,-0.261 0.211,-0.472 0.47,-0.472 h 2.126 c 0.251,0 0.455,0.2 0.467,0.449 l -0.001,8.281 c -0.001,0.272 0.125,0.518 0.346,0.664 0.109,0.07 0.24,0.117 0.391,0.131 h 0.079 0.223 0.09 c 0.46,-0.04 0.738,-0.389 0.737,-0.795 l 0.008,-8.236 c 0,-0.261 0.211,-0.471 0.47,-0.471 h 2.126 c 0.259,0 0.47,0.21 0.47,0.471 v 8.858 C 0.161,-0.521 0.093,-0.264 0,0"
             style="fill:#54c1f0;fill-opacity:1;fill-rule:nonzero;stroke:none"
             id="path462"
             inkscape:connector-curvature="0" />
        </g>
        <g
           id="g464"
           transform="translate(293.047,31.9845)">
          <path
             d="m 0,0 h -1.216 v 1.97 0 c 0,0.002 0,0.004 0,0.006 0,0.237 -0.192,0.429 -0.429,0.429 C -1.673,2.405 -1.7,2.401 -1.726,2.396 -3.074,2.026 -2.804,0.159 -5.265,0 H -5.32 -5.504 c -0.036,0 -0.07,-0.005 -0.103,-0.012 h -0.002 l 0.002,-10e-4 C -5.817,-0.06 -5.975,-0.246 -5.975,-0.47 v -2.126 c 0,-0.259 0.211,-0.47 0.471,-0.47 h 1.283 l -0.002,-9.015 c 0,-0.257 0.208,-0.465 0.465,-0.465 h 2.102 c 0.256,0 0.464,0.208 0.464,0.465 l 10e-4,9.015 H 0 c 0.259,0 0.47,0.211 0.47,0.47 V -0.47 C 0.47,-0.211 0.259,0 0,0"
             style="fill:#54c1f0;fill-opacity:1;fill-rule:nonzero;stroke:none"
             id="path466"
             inkscape:connector-curvature="0" />
        </g>
        <g
           id="g468"
           transform="translate(285.3979,31.9845)">
          <path
             d="M 0,0 H -2.126 C -2.385,0 -2.595,-0.211 -2.595,-0.47 V -4.866 C -2.6,-5.138 -2.82,-5.356 -3.093,-5.356 h -0.89 c -0.276,0 -0.499,0.222 -0.499,0.498 L -4.49,-0.47 C -4.49,-0.211 -4.701,0 -4.96,0 h -2.126 c -0.26,0 -0.47,-0.211 -0.47,-0.47 v -4.818 c 0,-1.83 1.305,-3.135 3.136,-3.135 0,0 1.374,0 1.416,-0.008 0.248,-0.028 0.441,-0.236 0.441,-0.492 0,-0.253 -0.189,-0.46 -0.434,-0.491 -0.012,-0.002 -0.023,-0.005 -0.036,-0.007 l -3.109,-0.011 c -0.26,0 -0.47,-0.211 -0.47,-0.47 v -2.125 c 0,-0.26 0.21,-0.47 0.47,-0.47 h 3.476 c 1.832,0 3.136,1.304 3.136,3.135 V -0.47 C 0.47,-0.211 0.26,0 0,0"
             style="fill:#233266;fill-opacity:1;fill-rule:nonzero;stroke:none"
             id="path470"
             inkscape:connector-curvature="0" />
        </g>
        <g
           id="g472"
           transform="translate(264.8197,28.089)">
          <path
             d="m 0,0 v -0.992 -0.32 c 0,-0.275 -0.223,-0.499 -0.498,-0.499 l -1.349,-0.001 v 2.629 h 1.349 C -0.223,0.817 0,0.595 0,0.319 Z M 0.187,3.896 H -4.46 c -0.255,0 -0.461,-0.207 -0.461,-0.461 V 1.352 c 0,-0.004 0.001,-0.008 0.001,-0.012 0,-0.01 -0.001,-0.02 -0.001,-0.029 V -5.37 -8.117 c 0,-0.256 0.192,-0.465 0.43,-0.471 h 0.04 2.126 c 0.259,0 0.47,0.21 0.47,0.47 l 0.008,3.231 h 2.034 c 1.702,0 2.888,1.181 2.888,2.89 v 2.999 c 0,1.709 -1.186,2.894 -2.888,2.894"
             style="fill:#233266;fill-opacity:1;fill-rule:nonzero;stroke:none"
             id="path474"
             inkscape:connector-curvature="0" />
        </g>
        <g
           id="g476"
           transform="translate(273.6408,23.0978)">
          <path
             d="M 0,0 V -0.332 C 0,-0.359 -0.004,-0.385 -0.008,-0.41 -0.013,-0.434 -0.02,-0.457 -0.028,-0.479 -0.094,-0.665 -0.28,-0.8 -0.501,-0.8 h -0.885 c -0.276,0 -0.501,0.21 -0.501,0.468 v 0.401 c 0,0.005 -10e-4,0.01 -10e-4,0.015 l 10e-4,1.067 v 0.002 0.118 0.214 l 0.001,0.003 c 10e-4,0.257 0.224,0.465 0.5,0.465 h 0.885 C -0.224,1.953 0,1.744 0,1.485 Z m -0.338,8.875 h -2.95 C -3.549,8.875 -3.76,8.677 -3.76,8.434 V 7.607 c 0,-0.005 10e-4,-0.011 10e-4,-0.016 0,-0.006 -10e-4,-0.012 -10e-4,-0.018 V 6.44 c 0,-0.257 0.224,-0.467 0.5,-0.467 h 2.809 c 0.222,-0.035 0.398,-0.197 0.423,-0.45 V 5.249 C -0.053,5.008 -0.227,4.832 -0.439,4.812 H -1.83 c -1.85,0 -3.168,-1.229 -3.168,-2.955 v -2.409 -0.063 c 0,-1.716 1.133,-2.937 2.97,-2.937 h 3.855 c 0.692,0 1.253,0.524 1.253,1.169 v 8.067 c 0,1.956 -1.008,3.191 -3.418,3.191"
             style="fill:#233266;fill-opacity:1;fill-rule:nonzero;stroke:none"
             id="path478"
             inkscape:connector-curvature="0" />
        </g>
        <g
           id="g480"
           transform="translate(311.0732,29.4972)">
          <path
             d="m 0,0 h 0.515 c 0.507,0 0.874,0.082 1.101,0.246 0.226,0.163 0.34,0.426 0.34,0.787 0,0.325 -0.107,0.569 -0.32,0.728 C 1.423,1.92 1.091,1.999 0.64,1.999 H 0 Z m 2.548,1.061 c 0,-0.499 -0.17,-0.882 -0.51,-1.15 C 1.698,-0.357 1.212,-0.491 0.579,-0.491 H 0 v -1.936 h -0.572 v 4.921 h 1.276 c 1.229,0 1.844,-0.477 1.844,-1.433"
             style="fill:#54c1f0;fill-opacity:1;fill-rule:nonzero;stroke:none"
             id="path482"
             inkscape:connector-curvature="0" />
        </g>
        <g
           id="g484"
           transform="translate(311.1991,29.6232)">
          <path
             d="m 0,0 h 0.389 c 0.478,0 0.823,0.074 1.027,0.222 0.194,0.14 0.288,0.364 0.288,0.685 0,0.286 -0.088,0.491 -0.269,0.626 -0.191,0.143 -0.5,0.214 -0.921,0.214 L 0,1.747 Z M 0.389,-0.252 H -0.252 V 1.999 H 0.514 C 0.997,1.999 1.347,1.913 1.585,1.735 1.831,1.552 1.956,1.273 1.956,0.907 1.956,0.505 1.824,0.206 1.564,0.018 1.313,-0.164 0.928,-0.252 0.389,-0.252 m -0.961,-2.175 h 0.32 v 1.936 h 0.705 c 0.601,0 1.066,0.126 1.381,0.375 0.311,0.245 0.462,0.589 0.462,1.051 0,0.879 -0.562,1.307 -1.719,1.307 H -0.572 Z M 0,-2.679 H -0.824 V 2.494 H 0.577 C 1.885,2.494 2.548,1.97 2.548,0.935 2.548,0.397 2.36,-0.022 1.99,-0.314 1.629,-0.599 1.112,-0.743 0.453,-0.743 H 0 Z"
             style="fill:#54c1f0;fill-opacity:1;fill-rule:nonzero;stroke:none"
             id="path486"
             inkscape:connector-curvature="0" />
        </g>
        <g
           id="g488"
           transform="translate(315.7074,27.631)">
          <path
             d="M 0,0 C 0.449,0 0.802,0.123 1.058,0.369 1.314,0.615 1.443,0.96 1.443,1.403 V 1.834 L 0.721,1.803 C 0.148,1.783 -0.266,1.693 -0.519,1.536 -0.773,1.378 -0.899,1.133 -0.899,0.8 -0.899,0.539 -0.821,0.34 -0.663,0.204 -0.505,0.068 -0.284,0 0,0 M 1.629,-0.509 1.486,0.169 H 1.451 C 1.214,-0.129 0.977,-0.331 0.741,-0.437 0.505,-0.542 0.21,-0.596 -0.143,-0.596 c -0.472,0 -0.843,0.122 -1.11,0.366 -0.268,0.243 -0.403,0.589 -0.403,1.039 0,0.961 0.77,1.465 2.308,1.511 L 1.46,2.347 V 2.642 C 1.46,3.016 1.38,3.291 1.219,3.47 1.058,3.647 0.801,3.737 0.448,3.737 0.051,3.737 -0.398,3.615 -0.899,3.372 l -0.222,0.552 c 0.235,0.127 0.492,0.227 0.771,0.3 0.28,0.072 0.56,0.108 0.841,0.108 0.568,0 0.988,-0.126 1.262,-0.378 C 2.027,3.702 2.164,3.298 2.164,2.742 v -3.251 z"
             style="fill:#54c1f0;fill-opacity:1;fill-rule:nonzero;stroke:none"
             id="path490"
             inkscape:connector-curvature="0" />
        </g>
        <g
           id="g492"
           transform="translate(317.0871,29.3986)">
          <path
             d="m 0,0 -0.656,-0.027 c -0.56,-0.02 -0.967,-0.107 -1.21,-0.258 -0.235,-0.147 -0.35,-0.37 -0.35,-0.683 0,-0.244 0.07,-0.424 0.215,-0.548 0.146,-0.126 0.355,-0.189 0.621,-0.189 0.431,0 0.772,0.119 1.015,0.352 C -0.123,-1.12 0,-0.787 0,-0.364 Z m -1.38,-1.831 c -0.298,0 -0.534,0.074 -0.703,0.22 -0.172,0.147 -0.259,0.364 -0.259,0.643 0,0.355 0.138,0.62 0.41,0.79 0.262,0.163 0.69,0.256 1.271,0.277 l 0.787,0.033 v -0.496 c 0,-0.459 -0.136,-0.823 -0.404,-1.079 C -0.545,-1.7 -0.916,-1.831 -1.38,-1.831 m 0.448,3.863 c 0.37,0 0.645,-0.096 0.818,-0.288 C 0.057,1.555 0.144,1.262 0.144,0.874 V 0.518 l -0.87,-0.029 c -1.511,-0.045 -2.246,-0.518 -2.246,-1.448 0,-0.429 0.128,-0.763 0.381,-0.992 0.255,-0.232 0.614,-0.349 1.068,-0.349 0.343,0 0.632,0.052 0.858,0.154 0.226,0.1 0.457,0.298 0.687,0.586 l 0.019,0.025 h 0.117 l 0.143,-0.678 h 0.42 V 0.975 C 0.721,1.51 0.59,1.902 0.331,2.14 0.07,2.38 -0.34,2.502 -0.888,2.502 -1.162,2.502 -1.44,2.466 -1.714,2.395 -1.968,2.329 -2.206,2.239 -2.421,2.127 L -2.245,1.69 c 0.483,0.227 0.925,0.342 1.313,0.342 m -0.591,-4.458 c -0.486,0 -0.874,0.128 -1.153,0.382 -0.28,0.254 -0.422,0.619 -0.422,1.085 0,0.997 0.797,1.527 2.368,1.574 L 0.018,0.64 v 0.234 c 0,0.355 -0.076,0.62 -0.226,0.786 -0.147,0.163 -0.391,0.246 -0.724,0.246 -0.385,0 -0.829,-0.12 -1.319,-0.358 L -2.312,1.519 -2.58,2.185 -2.531,2.212 c 0.238,0.129 0.502,0.231 0.786,0.305 0.284,0.074 0.572,0.111 0.857,0.111 0.581,0 1.02,-0.133 1.304,-0.396 C 0.702,1.97 0.847,1.547 0.847,0.975 V -2.339 H 0.199 l -0.134,0.633 c -0.224,-0.268 -0.452,-0.454 -0.678,-0.556 -0.243,-0.109 -0.549,-0.164 -0.91,-0.164"
             style="fill:#54c1f0;fill-opacity:1;fill-rule:nonzero;stroke:none"
             id="path494"
             inkscape:connector-curvature="0" />
        </g>
        <g
           id="g496"
           transform="translate(318.6012,31.8849)">
          <path
             d="m 0,0 h 0.773 l 1.043,-2.716 c 0.229,-0.62 0.371,-1.067 0.426,-1.343 h 0.035 c 0.038,0.148 0.117,0.401 0.237,0.759 0.12,0.358 0.513,1.457 1.18,3.3 L 4.467,0 2.42,-5.423 C 2.218,-5.959 1.981,-6.339 1.71,-6.563 1.439,-6.788 1.106,-6.9 0.713,-6.9 c -0.221,0 -0.438,0.024 -0.652,0.074 v 0.578 c 0.159,-0.035 0.337,-0.053 0.534,-0.053 0.496,0 0.849,0.279 1.061,0.835 l 0.265,0.678 z"
             style="fill:#54c1f0;fill-opacity:1;fill-rule:nonzero;stroke:none"
             id="path498"
             inkscape:connector-curvature="0" />
        </g>
        <g
           id="g500"
           transform="translate(318.7253,25.1095)">
          <path
             d="m 0,0 c 0.193,-0.041 0.391,-0.062 0.589,-0.062 0.377,0 0.699,0.109 0.957,0.323 0.261,0.217 0.494,0.591 0.692,1.114 L 4.252,6.712 H 3.614 C 2.959,4.902 2.568,3.807 2.449,3.455 2.328,3.094 2.251,2.848 2.214,2.701 L 2.202,2.654 H 2.067 L 2.056,2.705 C 2.002,2.976 1.86,3.424 1.633,4.037 L 0.606,6.712 H -0.031 L 1.864,1.987 1.59,1.286 C 1.37,0.706 0.993,0.412 0.471,0.412 0.301,0.412 0.143,0.425 0,0.45 Z m 0.589,-0.187 c -0.224,0 -0.448,0.025 -0.666,0.075 l -0.049,0.01 v 0.707 l 0.077,-0.016 c 0.153,-0.034 0.328,-0.051 0.52,-0.051 0.471,0 0.799,0.26 1.002,0.794 l 0.256,0.654 -1.946,4.852 h 0.91 L 1.751,4.082 C 1.937,3.577 2.068,3.183 2.14,2.903 2.183,3.05 2.246,3.245 2.33,3.495 2.449,3.851 2.846,4.962 3.51,6.797 L 3.525,6.838 H 4.434 L 4.402,6.753 2.355,1.33 C 2.15,0.787 1.904,0.395 1.626,0.163 1.345,-0.069 0.996,-0.187 0.589,-0.187"
             style="fill:#54c1f0;fill-opacity:1;fill-rule:nonzero;stroke:none"
             id="path502"
             inkscape:connector-curvature="0" />
        </g>
        <g
           id="g504"
           transform="translate(329.9118,27.1222)">
          <path
             d="M 0,0 V 3.099 C 0,3.478 -0.081,3.763 -0.243,3.952 -0.406,4.142 -0.658,4.236 -1,4.236 -1.448,4.236 -1.78,4.107 -1.994,3.851 -2.209,3.593 -2.316,3.195 -2.316,2.659 V 0 h -0.721 v 3.099 c 0,0.379 -0.081,0.664 -0.244,0.853 -0.162,0.19 -0.415,0.284 -0.76,0.284 -0.452,0 -0.783,-0.134 -0.993,-0.405 C -5.244,3.56 -5.349,3.116 -5.349,2.499 V 0 H -6.07 v 4.763 h 0.586 l 0.118,-0.652 h 0.034 c 0.137,0.232 0.329,0.412 0.576,0.543 0.248,0.13 0.525,0.196 0.832,0.196 0.745,0 1.231,-0.27 1.46,-0.809 h 0.035 c 0.142,0.249 0.348,0.446 0.617,0.591 0.27,0.145 0.576,0.218 0.921,0.218 0.539,0 0.943,-0.139 1.21,-0.415 C 0.587,4.158 0.721,3.716 0.721,3.107 V 0 Z"
             style="fill:#54c1f0;fill-opacity:1;fill-rule:nonzero;stroke:none"
             id="path506"
             inkscape:connector-curvature="0" />
        </g>
        <g
           id="g508"
           transform="translate(329.9748,27.1857)">
          <path
             d="m 0,0 h 0.595 v 3.044 c 0,0.588 -0.129,1.02 -0.384,1.283 -0.254,0.263 -0.646,0.397 -1.165,0.397 -0.332,0 -0.632,-0.072 -0.891,-0.21 C -2.103,4.375 -2.302,4.185 -2.437,3.946 L -2.455,3.915 H -2.568 L -2.585,3.953 C -2.805,4.472 -3.263,4.724 -3.987,4.724 -4.282,4.724 -4.552,4.66 -4.79,4.535 -5.025,4.41 -5.211,4.236 -5.34,4.016 L -5.359,3.984 H -5.482 L -5.599,4.636 H -6.07 V 0 h 0.595 v 2.436 c 0,0.627 0.11,1.088 0.328,1.37 0.222,0.286 0.573,0.43 1.043,0.43 0.362,0 0.634,-0.103 0.808,-0.306 0.172,-0.201 0.259,-0.502 0.259,-0.895 V 0 h 0.595 v 2.596 c 0,0.549 0.113,0.963 0.336,1.231 0.226,0.272 0.577,0.409 1.044,0.409 0.359,0 0.629,-0.103 0.803,-0.306 C -0.087,3.729 0,3.428 0,3.035 Z m 0.721,-0.126 h -0.847 v 3.161 c 0,0.362 -0.077,0.636 -0.228,0.813 C -0.503,4.022 -0.741,4.11 -1.062,4.11 -1.49,4.11 -1.808,3.987 -2.009,3.746 -2.213,3.501 -2.316,3.114 -2.316,2.596 v -2.722 h -0.847 v 3.161 c 0,0.362 -0.077,0.636 -0.229,0.813 -0.149,0.174 -0.389,0.262 -0.712,0.262 -0.429,0 -0.747,-0.129 -0.943,-0.381 -0.2,-0.258 -0.302,-0.694 -0.302,-1.293 v -2.562 h -0.847 v 4.888 h 0.702 l 0.106,-0.587 c 0.137,0.196 0.318,0.354 0.54,0.471 0.255,0.135 0.546,0.204 0.861,0.204 0.733,0 1.231,-0.26 1.483,-0.771 0.145,0.227 0.346,0.409 0.599,0.545 0.278,0.149 0.598,0.226 0.951,0.226 C -0.4,4.85 0.023,4.703 0.302,4.415 0.58,4.127 0.721,3.666 0.721,3.044 Z"
             style="fill:#54c1f0;fill-opacity:1;fill-rule:nonzero;stroke:none"
             id="path510"
             inkscape:connector-curvature="0" />
        </g>
        <g
           id="g512"
           transform="translate(333.6833,31.3683)">
          <path
             d="m 0,0 c -0.382,0 -0.687,-0.125 -0.915,-0.374 -0.227,-0.249 -0.361,-0.594 -0.401,-1.034 h 2.489 c 0,0.455 -0.101,0.803 -0.304,1.045 C 0.666,-0.121 0.377,0 0,0 m 0.196,-4.333 c -0.704,0 -1.26,0.215 -1.667,0.644 -0.407,0.428 -0.61,1.023 -0.61,1.786 0,0.767 0.189,1.377 0.567,1.829 0.378,0.452 0.885,0.678 1.523,0.678 0.596,0 1.069,-0.197 1.416,-0.589 0.348,-0.393 0.522,-0.911 0.522,-1.554 v -0.456 h -3.281 c 0.015,-0.559 0.156,-0.984 0.424,-1.274 0.268,-0.289 0.645,-0.433 1.132,-0.433 0.512,0 1.019,0.106 1.52,0.321 V -4.024 C 1.488,-4.135 1.246,-4.213 1.019,-4.261 0.792,-4.309 0.517,-4.333 0.196,-4.333"
             style="fill:#54c1f0;fill-opacity:1;fill-rule:nonzero;stroke:none"
             id="path514"
             inkscape:connector-curvature="0" />
        </g>
        <g
           id="g516"
           transform="translate(332.4367,30.0226)">
          <path
             d="M 0,0 H 2.356 C 2.347,0.407 2.25,0.724 2.067,0.942 1.875,1.171 1.607,1.282 1.247,1.282 0.885,1.282 0.592,1.163 0.378,0.929 0.173,0.704 0.046,0.393 0,0 m 2.483,-0.126 h -2.622 l 0.006,0.069 c 0.042,0.453 0.183,0.813 0.418,1.071 0.239,0.261 0.563,0.394 0.962,0.394 0.394,0 0.702,-0.13 0.917,-0.386 C 2.375,0.771 2.483,0.405 2.483,-0.062 Z M 1.255,1.887 C 0.641,1.887 0.144,1.666 -0.219,1.231 -0.586,0.793 -0.772,0.19 -0.772,-0.558 c 0,-0.742 0.2,-1.328 0.594,-1.743 0.392,-0.413 0.937,-0.623 1.62,-0.623 0.316,0 0.589,0.024 0.81,0.07 0.212,0.044 0.439,0.118 0.674,0.217 V -2.13 C 2.448,-2.322 1.957,-2.42 1.468,-2.42 c -0.502,0 -0.899,0.153 -1.178,0.454 -0.278,0.301 -0.426,0.743 -0.44,1.316 l -0.002,0.064 H 3.13 v 0.393 C 3.13,0.432 2.96,0.939 2.625,1.318 2.291,1.695 1.83,1.887 1.255,1.887 M 1.442,-3.05 c -0.719,0 -1.295,0.223 -1.712,0.662 -0.417,0.44 -0.628,1.055 -0.628,1.83 0,0.779 0.196,1.408 0.582,1.87 0.389,0.464 0.918,0.701 1.571,0.701 0.613,0 1.105,-0.206 1.464,-0.611 0.356,-0.403 0.537,-0.939 0.537,-1.595 v -0.519 h -3.278 c 0.023,-0.51 0.159,-0.902 0.405,-1.168 0.254,-0.274 0.619,-0.414 1.085,-0.414 0.502,0 1.006,0.106 1.496,0.316 L 3.052,-1.94 V -2.72 L 3.014,-2.736 C 2.757,-2.848 2.51,-2.929 2.279,-2.977 2.048,-3.025 1.767,-3.05 1.442,-3.05"
             style="fill:#54c1f0;fill-opacity:1;fill-rule:nonzero;stroke:none"
             id="path518"
             inkscape:connector-curvature="0" />
        </g>
        <g
           id="g520"
           transform="translate(340.1183,27.1222)">
          <path
             d="M 0,0 V 3.081 C 0,3.469 -0.088,3.759 -0.265,3.95 -0.442,4.142 -0.718,4.236 -1.095,4.236 -1.593,4.236 -1.958,4.103 -2.19,3.833 -2.422,3.563 -2.537,3.118 -2.537,2.499 V 0 h -0.722 v 4.763 h 0.587 l 0.117,-0.652 h 0.035 c 0.148,0.235 0.355,0.416 0.621,0.545 0.267,0.129 0.564,0.194 0.891,0.194 0.574,0 1.005,-0.139 1.295,-0.415 C 0.576,4.158 0.721,3.716 0.721,3.107 V 0 Z"
             style="fill:#54c1f0;fill-opacity:1;fill-rule:nonzero;stroke:none"
             id="path522"
             inkscape:connector-curvature="0" />
        </g>
        <g
           id="g524"
           transform="translate(340.1815,27.1857)">
          <path
             d="M 0,0 H 0.595 V 3.044 C 0.595,3.631 0.456,4.062 0.18,4.325 -0.096,4.589 -0.517,4.724 -1.071,4.724 -1.387,4.724 -1.678,4.66 -1.935,4.536 -2.189,4.413 -2.389,4.237 -2.53,4.014 L -2.549,3.984 H -2.671 L -2.788,4.636 H -3.259 V 0 h 0.595 v 2.436 c 0,0.631 0.122,1.094 0.363,1.375 0.243,0.282 0.628,0.425 1.143,0.425 0.393,0 0.688,-0.103 0.876,-0.306 C -0.095,3.727 0,3.42 0,3.018 Z m 0.721,-0.126 h -0.847 v 3.144 c 0,0.37 -0.084,0.648 -0.249,0.826 C -0.538,4.021 -0.802,4.11 -1.158,4.11 -1.635,4.11 -1.987,3.981 -2.205,3.729 -2.426,3.472 -2.538,3.037 -2.538,2.436 v -2.562 h -0.847 v 4.888 h 0.702 L -2.576,4.17 c 0.149,0.202 0.345,0.362 0.587,0.479 0.273,0.133 0.583,0.201 0.918,0.201 0.588,0 1.038,-0.146 1.338,-0.433 0.302,-0.288 0.454,-0.75 0.454,-1.373 z"
             style="fill:#54c1f0;fill-opacity:1;fill-rule:nonzero;stroke:none"
             id="path526"
             inkscape:connector-curvature="0" />
        </g>
        <g
           id="g528"
           transform="translate(343.8595,27.631)">
          <path
             d="M 0,0 C 0.127,0 0.251,0.01 0.369,0.028 0.488,0.047 0.583,0.066 0.652,0.087 V -0.465 C 0.574,-0.503 0.458,-0.534 0.306,-0.559 0.155,-0.583 0.018,-0.596 -0.104,-0.596 c -0.921,0 -1.382,0.486 -1.382,1.456 v 2.833 h -0.682 v 0.348 l 0.682,0.3 0.304,1.016 h 0.417 V 4.254 H 0.617 V 3.693 H -0.765 V 0.891 C -0.765,0.604 -0.697,0.384 -0.56,0.23 -0.424,0.077 -0.237,0 0,0"
             style="fill:#54c1f0;fill-opacity:1;fill-rule:nonzero;stroke:none"
             id="path530"
             inkscape:connector-curvature="0" />
        </g>
        <g
           id="g532"
           transform="translate(341.7543,31.3868)">
          <path
             d="m 0,0 h 0.682 v -2.896 c 0,-0.936 0.432,-1.392 1.319,-1.392 0.119,0 0.254,0.012 0.401,0.036 0.123,0.02 0.221,0.044 0.292,0.072 v 0.43 C 2.635,-3.764 2.564,-3.777 2.484,-3.79 2.362,-3.81 2.235,-3.819 2.105,-3.819 c -0.255,0 -0.459,0.085 -0.607,0.252 -0.146,0.165 -0.22,0.401 -0.22,0.702 V 0 H 2.659 V 0.435 H 1.278 V 1.538 H 0.97 L 0.671,0.539 0,0.244 Z m 2.001,-4.414 c -0.959,0 -1.445,0.511 -1.445,1.518 v 2.77 H -0.126 V 0.326 L 0.567,0.631 0.876,1.665 H 1.404 V 0.561 H 2.785 V -0.126 H 1.404 v -2.739 c 0,-0.27 0.063,-0.478 0.188,-0.618 0.125,-0.141 0.293,-0.21 0.513,-0.21 0.123,0 0.244,0.009 0.36,0.028 0.114,0.018 0.207,0.037 0.275,0.057 l 0.08,0.023 V -4.261 L 2.784,-4.277 C 2.7,-4.318 2.581,-4.351 2.422,-4.377 2.268,-4.401 2.126,-4.414 2.001,-4.414"
             style="fill:#54c1f0;fill-opacity:1;fill-rule:nonzero;stroke:none"
             id="path534"
             inkscape:connector-curvature="0" />
        </g>
        <g
           id="g536"
           transform="translate(348.5351,28.422)">
          <path
             d="m 0,0 c 0,-0.443 -0.165,-0.785 -0.496,-1.025 -0.33,-0.242 -0.793,-0.362 -1.39,-0.362 -0.631,0 -1.124,0.101 -1.477,0.3 v 0.67 c 0.228,-0.116 0.474,-0.207 0.736,-0.274 0.262,-0.067 0.515,-0.1 0.758,-0.1 0.377,0 0.667,0.06 0.869,0.181 0.203,0.12 0.305,0.302 0.305,0.548 0,0.186 -0.081,0.345 -0.242,0.477 -0.16,0.132 -0.474,0.287 -0.94,0.467 -0.443,0.165 -0.758,0.309 -0.945,0.432 -0.187,0.123 -0.326,0.263 -0.418,0.419 -0.091,0.157 -0.136,0.344 -0.136,0.561 0,0.389 0.158,0.694 0.473,0.919 0.316,0.225 0.749,0.337 1.299,0.337 0.513,0 1.014,-0.105 1.504,-0.314 L -0.356,2.65 c -0.478,0.197 -0.911,0.296 -1.3,0.296 -0.342,0 -0.599,-0.054 -0.773,-0.161 C -2.603,2.678 -2.69,2.53 -2.69,2.342 -2.69,2.214 -2.657,2.105 -2.592,2.016 -2.527,1.926 -2.422,1.841 -2.277,1.76 -2.132,1.679 -1.854,1.562 -1.443,1.407 -0.878,1.202 -0.496,0.995 -0.298,0.786 -0.099,0.578 0,0.315 0,0"
             style="fill:#54c1f0;fill-opacity:1;fill-rule:nonzero;stroke:none"
             id="path538"
             inkscape:connector-curvature="0" />
        </g>
        <g
           id="g540"
           transform="translate(345.2348,27.3732)">
          <path
             d="m 0,0 c 0.34,-0.183 0.815,-0.274 1.414,-0.274 0.581,0 1.036,0.117 1.354,0.348 0.315,0.23 0.469,0.549 0.469,0.975 0,0.297 -0.094,0.548 -0.28,0.743 C 2.766,1.992 2.389,2.196 1.836,2.397 1.416,2.554 1.141,2.671 0.993,2.754 0.841,2.838 0.728,2.931 0.657,3.027 0.584,3.128 0.548,3.25 0.548,3.391 c 0,0.211 0.097,0.378 0.29,0.497 0.184,0.112 0.455,0.17 0.807,0.17 0.378,0 0.804,-0.093 1.266,-0.277 L 3.117,4.252 C 2.656,4.44 2.178,4.536 1.697,4.536 1.162,4.536 0.738,4.426 0.434,4.21 0.133,3.996 -0.013,3.713 -0.013,3.343 -0.013,3.138 0.03,2.96 0.115,2.814 0.201,2.667 0.335,2.532 0.513,2.416 0.695,2.295 1.009,2.152 1.445,1.99 1.923,1.806 2.237,1.649 2.404,1.513 2.579,1.368 2.668,1.192 2.668,0.987 2.668,0.719 2.555,0.516 2.333,0.384 2.121,0.259 1.818,0.194 1.432,0.194 1.185,0.194 0.925,0.229 0.658,0.297 0.427,0.355 0.206,0.435 0,0.53 Z m 1.414,-0.4 c -0.64,0 -1.147,0.103 -1.508,0.307 l -0.032,0.019 V 0.734 L -0.034,0.687 C 0.188,0.575 0.432,0.484 0.689,0.419 0.946,0.354 1.196,0.32 1.432,0.32 c 0.363,0 0.645,0.059 0.837,0.172 0.183,0.11 0.273,0.272 0.273,0.495 0,0.168 -0.072,0.308 -0.218,0.428 C 2.169,1.542 1.859,1.695 1.4,1.872 0.956,2.037 0.634,2.185 0.443,2.311 0.249,2.438 0.102,2.587 0.006,2.751 -0.09,2.916 -0.139,3.115 -0.139,3.343 c 0,0.408 0.168,0.734 0.5,0.97 0.326,0.231 0.775,0.349 1.336,0.349 0.519,0 1.033,-0.107 1.528,-0.318 L 3.284,4.318 2.977,3.617 2.92,3.641 C 2.451,3.834 2.022,3.932 1.645,3.932 1.317,3.932 1.068,3.881 0.904,3.78 0.749,3.685 0.674,3.557 0.674,3.391 0.674,3.277 0.702,3.18 0.759,3.102 0.819,3.02 0.918,2.939 1.054,2.863 1.195,2.785 1.472,2.668 1.88,2.516 2.458,2.305 2.841,2.097 3.048,1.878 3.257,1.659 3.363,1.38 3.363,1.049 3.363,0.586 3.188,0.224 2.842,-0.028 2.502,-0.275 2.022,-0.4 1.414,-0.4"
             style="fill:#54c1f0;fill-opacity:1;fill-rule:nonzero;stroke:none"
             id="path542"
             inkscape:connector-curvature="0" />
        </g>
        <g
           id="g544"
           transform="translate(311.0722,21.715)">
          <path
             d="m 0,0 v -1.84 h 1.026 c 0.397,0 0.695,0.076 0.896,0.231 0.201,0.153 0.301,0.394 0.301,0.721 0,0.305 -0.102,0.53 -0.307,0.673 C 1.71,-0.072 1.398,0 0.979,0 Z m 0,0.484 h 0.942 c 0.403,0 0.694,0.064 0.871,0.191 0.177,0.126 0.266,0.34 0.266,0.64 C 2.079,1.591 1.98,1.79 1.782,1.912 1.585,2.034 1.271,2.096 0.841,2.096 H 0 Z M -0.572,2.59 H 0.817 C 1.47,2.59 1.942,2.492 2.233,2.297 2.525,2.103 2.671,1.794 2.671,1.372 2.671,1.081 2.589,0.841 2.427,0.65 2.264,0.461 2.027,0.339 1.715,0.282 V 0.249 c 0.747,-0.128 1.12,-0.52 1.12,-1.178 0,-0.439 -0.148,-0.782 -0.445,-1.029 C 2.093,-2.204 1.677,-2.327 1.144,-2.327 h -1.716 z"
             style="fill:#54c1f0;fill-opacity:1;fill-rule:nonzero;stroke:none"
             id="path546"
             inkscape:connector-curvature="0" />
        </g>
        <g
           id="g548"
           transform="translate(311.1982,22.3253)">
          <path
             d="M 0,0 H 0.816 C 1.191,0 1.459,0.056 1.614,0.166 1.757,0.269 1.827,0.445 1.827,0.705 1.827,0.936 1.749,1.096 1.59,1.194 1.414,1.304 1.12,1.359 0.715,1.359 H 0 Z M 0.816,-0.252 H -0.252 V 1.611 H 0.715 C 1.174,1.611 1.503,1.545 1.723,1.409 1.959,1.263 2.079,1.025 2.079,0.705 2.079,0.362 1.971,0.112 1.76,-0.039 1.559,-0.183 1.25,-0.252 0.816,-0.252 M 0,-2.324 h 0.9 c 0.367,0 0.642,0.068 0.82,0.204 0.169,0.13 0.251,0.333 0.251,0.622 0,0.264 -0.083,0.449 -0.254,0.569 -0.182,0.128 -0.473,0.193 -0.864,0.193 H 0 Z m 0.9,-0.252 h -1.152 v 2.092 h 1.105 c 0.449,0 0.78,-0.078 1.009,-0.239 0.24,-0.168 0.361,-0.428 0.361,-0.775 0,-0.367 -0.118,-0.644 -0.35,-0.822 C 1.651,-2.49 1.323,-2.576 0.9,-2.576 m -1.472,-0.236 h 1.59 c 0.501,0 0.893,0.115 1.165,0.341 0.269,0.223 0.4,0.529 0.4,0.932 0,0.592 -0.332,0.936 -1.015,1.054 l -0.105,0.017 v 0.245 l 0.104,0.019 c 0.281,0.051 0.496,0.16 0.638,0.326 0.144,0.168 0.213,0.377 0.213,0.64 0,0.381 -0.124,0.648 -0.381,0.82 -0.269,0.18 -0.722,0.272 -1.346,0.272 h -1.263 z m 1.59,-0.252 H -0.824 V 2.105 H 0.691 C 1.376,2.105 1.862,2.003 2.177,1.792 2.505,1.572 2.671,1.227 2.671,0.762 2.671,0.44 2.578,0.17 2.396,-0.042 2.29,-0.165 2.156,-0.264 1.994,-0.337 2.679,-0.586 2.835,-1.111 2.835,-1.539 2.835,-2.016 2.67,-2.395 2.344,-2.665 2.025,-2.93 1.579,-3.064 1.018,-3.064"
             style="fill:#54c1f0;fill-opacity:1;fill-rule:nonzero;stroke:none"
             id="path550"
             inkscape:connector-curvature="0" />
        </g>
        <g
           id="g552"
           transform="translate(316.3075,19.8829)">
          <path
             d="m 0,0 c 0.454,0 0.81,0.124 1.069,0.373 0.26,0.249 0.389,0.598 0.389,1.046 V 1.854 L 0.729,1.822 C 0.149,1.802 -0.269,1.712 -0.525,1.553 -0.781,1.393 -0.909,1.145 -0.909,0.809 -0.909,0.545 -0.829,0.344 -0.67,0.206 -0.51,0.068 -0.287,0 0,0 M 1.647,-0.514 1.502,0.172 H 1.467 C 1.227,-0.13 0.988,-0.334 0.749,-0.441 0.51,-0.548 0.212,-0.602 -0.145,-0.602 c -0.477,0 -0.851,0.123 -1.122,0.37 -0.271,0.246 -0.406,0.595 -0.406,1.049 0,0.972 0.777,1.482 2.332,1.529 L 1.476,2.372 V 2.67 c 0,0.378 -0.081,0.656 -0.244,0.837 -0.163,0.18 -0.422,0.27 -0.78,0.27 -0.401,0 -0.854,-0.123 -1.361,-0.369 l -0.224,0.558 c 0.237,0.129 0.497,0.229 0.779,0.303 0.283,0.073 0.566,0.11 0.85,0.11 0.574,0 0.999,-0.128 1.276,-0.383 C 2.049,3.741 2.187,3.333 2.187,2.771 v -3.285 z"
             style="fill:#54c1f0;fill-opacity:1;fill-rule:nonzero;stroke:none"
             id="path554"
             inkscape:connector-curvature="0" />
        </g>
        <g
           id="g556"
           transform="translate(317.7025,21.671)">
          <path
             d="m 0,0 -0.663,-0.028 c -0.566,-0.02 -0.978,-0.108 -1.223,-0.261 -0.239,-0.148 -0.355,-0.375 -0.355,-0.69 0,-0.244 0.073,-0.43 0.217,-0.555 0.147,-0.127 0.359,-0.191 0.629,-0.191 0.435,0 0.78,0.12 1.026,0.356 0.245,0.235 0.369,0.571 0.369,1 z m -1.395,-1.851 c -0.302,0 -0.541,0.075 -0.711,0.222 -0.173,0.149 -0.261,0.367 -0.261,0.65 0,0.358 0.139,0.625 0.414,0.797 0.265,0.165 0.697,0.259 1.285,0.28 l 0.794,0.033 v -0.5 c 0,-0.464 -0.137,-0.831 -0.408,-1.091 -0.27,-0.26 -0.644,-0.391 -1.113,-0.391 m 0.452,3.903 c 0.375,0 0.652,-0.098 0.827,-0.291 0.172,-0.192 0.26,-0.488 0.26,-0.879 V 0.522 L -0.734,0.494 c -1.528,-0.046 -2.271,-0.525 -2.271,-1.465 0,-0.433 0.13,-0.771 0.386,-1.003 0.257,-0.234 0.62,-0.353 1.079,-0.353 0.346,0 0.639,0.053 0.868,0.155 0.228,0.103 0.462,0.302 0.695,0.595 l 0.019,0.023 H 0.158 L 0.303,-2.239 H 0.729 V 0.983 C 0.729,1.524 0.596,1.921 0.334,2.162 0.071,2.404 -0.344,2.527 -0.898,2.527 -1.176,2.527 -1.456,2.491 -1.733,2.42 -1.99,2.354 -2.23,2.262 -2.448,2.148 l 0.177,-0.442 c 0.49,0.23 0.936,0.346 1.328,0.346 M -1.54,-2.453 c -0.491,0 -0.883,0.13 -1.164,0.386 -0.283,0.256 -0.427,0.626 -0.427,1.096 0,1.008 0.805,1.543 2.393,1.591 l 0.756,0.025 v 0.237 c 0,0.36 -0.077,0.627 -0.228,0.795 -0.149,0.165 -0.396,0.249 -0.733,0.249 -0.389,0 -0.838,-0.122 -1.333,-0.363 l -0.061,-0.029 -0.27,0.672 0.049,0.027 c 0.24,0.13 0.507,0.235 0.794,0.309 0.286,0.074 0.578,0.111 0.866,0.111 0.587,0 1.03,-0.133 1.318,-0.398 C 0.709,1.989 0.855,1.561 0.855,0.983 V -2.365 H 0.201 l -0.136,0.64 c -0.227,-0.271 -0.458,-0.46 -0.685,-0.562 -0.246,-0.109 -0.556,-0.166 -0.92,-0.166"
             style="fill:#54c1f0;fill-opacity:1;fill-rule:nonzero;stroke:none"
             id="path558"
             inkscape:connector-curvature="0" />
        </g>
        <g
           id="g560"
           transform="translate(323.2902,19.3693)">
          <path
             d="m 0,0 v 3.113 c 0,0.393 -0.089,0.686 -0.268,0.879 -0.179,0.194 -0.458,0.29 -0.839,0.29 -0.503,0 -0.872,-0.136 -1.106,-0.409 C -2.448,3.601 -2.565,3.151 -2.565,2.525 V 0 h -0.729 v 4.813 h 0.593 l 0.119,-0.659 h 0.035 c 0.149,0.238 0.359,0.421 0.628,0.552 0.269,0.13 0.569,0.195 0.9,0.195 0.58,0 1.016,-0.14 1.309,-0.42 C 0.583,4.202 0.729,3.755 0.729,3.14 V 0 Z"
             style="fill:#54c1f0;fill-opacity:1;fill-rule:nonzero;stroke:none"
             id="path562"
             inkscape:connector-curvature="0" />
        </g>
        <g
           id="g564"
           transform="translate(323.3532,19.4318)">
          <path
             d="m 0,0 h 0.603 v 3.077 c 0,0.594 -0.141,1.03 -0.42,1.296 -0.279,0.268 -0.705,0.402 -1.265,0.402 -0.319,0 -0.613,-0.063 -0.873,-0.188 C -2.212,4.462 -2.415,4.284 -2.557,4.059 L -2.575,4.029 H -2.698 L -2.816,4.687 H -3.294 V 0 h 0.603 v 2.463 c 0,0.639 0.124,1.106 0.367,1.389 0.245,0.286 0.634,0.43 1.154,0.43 0.398,0 0.695,-0.104 0.885,-0.309 C -0.096,3.768 0,3.458 0,3.051 Z m 0.729,-0.126 h -0.855 v 3.177 c 0,0.374 -0.085,0.655 -0.251,0.836 -0.165,0.178 -0.432,0.269 -0.793,0.269 -0.482,0 -0.838,-0.13 -1.059,-0.386 C -2.452,3.511 -2.565,3.07 -2.565,2.463 V -0.126 H -3.42 v 4.939 h 0.709 l 0.108,-0.599 c 0.15,0.204 0.349,0.368 0.593,0.485 0.277,0.135 0.589,0.202 0.928,0.202 0.594,0 1.049,-0.146 1.353,-0.436 C 0.575,4.174 0.729,3.707 0.729,3.077 Z"
             style="fill:#54c1f0;fill-opacity:1;fill-rule:nonzero;stroke:none"
             id="path566"
             inkscape:connector-curvature="0" />
        </g>
        <g
           id="g568"
           transform="translate(326.237,21.8331)">
          <path
             d="M 0,0 C 0.126,0.179 0.318,0.412 0.575,0.702 L 2.13,2.35 H 2.995 L 1.045,0.299 3.131,-2.464 H 2.249 L 0.549,-0.188 0,-0.663 V -2.464 H -0.72 V 4.369 H 0 V 0.746 C 0,0.585 -0.012,0.336 -0.035,0 Z"
             style="fill:#54c1f0;fill-opacity:1;fill-rule:nonzero;stroke:none"
             id="path570"
             inkscape:connector-curvature="0" />
        </g>
        <g
           id="g572"
           transform="translate(328.517,19.4318)">
          <path
             d="M 0,0 H 0.725 L -1.317,2.704 0.568,4.687 H -0.123 L -1.659,3.061 C -1.912,2.776 -2.104,2.541 -2.229,2.364 L -2.247,2.338 h -0.136 l 0.005,0.067 c 0.023,0.333 0.035,0.582 0.035,0.742 V 6.708 H -2.937 V 0 h 0.594 v 1.767 l 0.622,0.537 z M 0.978,-0.126 H -0.063 L -1.741,2.12 -2.217,1.709 v -1.835 h -0.846 v 6.96 h 0.846 V 3.147 c 0,-0.134 -0.008,-0.332 -0.024,-0.586 0.122,0.161 0.286,0.357 0.489,0.585 l 1.575,1.667 H 0.862 L -1.152,2.695 Z"
             style="fill:#54c1f0;fill-opacity:1;fill-rule:nonzero;stroke:none"
             id="path574"
             inkscape:connector-curvature="0" />
        </g>
      </g>
    </g>
  </g>
</svg>
